<?xml version="1.0" encoding="UTF-8" standalone="no"?>
<!-- Created with Inkscape (http://www.inkscape.org/) -->

<svg
   xmlns:dc="http://purl.org/dc/elements/1.1/"
   xmlns:cc="http://creativecommons.org/ns#"
   xmlns:rdf="http://www.w3.org/1999/02/22-rdf-syntax-ns#"
   xmlns:svg="http://www.w3.org/2000/svg"
   xmlns="http://www.w3.org/2000/svg"
   xmlns:sodipodi="http://sodipodi.sourceforge.net/DTD/sodipodi-0.dtd"
   xmlns:inkscape="http://www.inkscape.org/namespaces/inkscape"
   width="512"
   height="512"
   viewBox="0 0 511.99999 511.99999"
   id="svg2"
   version="1.1"
   inkscape:version="0.91 r13725"
   sodipodi:docname="MainIcon2.svg">
  <defs
     id="defs4" />
  <sodipodi:namedview
     id="base"
     pagecolor="#ffffff"
     bordercolor="#666666"
     borderopacity="1.0"
     inkscape:pageopacity="0.0"
     inkscape:pageshadow="2"
     inkscape:zoom="0.7"
     inkscape:cx="61.944634"
     inkscape:cy="299.52924"
     inkscape:document-units="px"
     inkscape:current-layer="layer1"
     showgrid="false"
     units="px"
     inkscape:window-width="1366"
     inkscape:window-height="719"
     inkscape:window-x="0"
     inkscape:window-y="25"
     inkscape:window-maximized="1" />
  <metadata
     id="metadata7">
    <rdf:RDF>
      <cc:Work
         rdf:about="">
        <dc:format>image/svg+xml</dc:format>
        <dc:type
           rdf:resource="http://purl.org/dc/dcmitype/StillImage" />
        <dc:title></dc:title>
      </cc:Work>
    </rdf:RDF>
  </metadata>
  <g
     inkscape:label="Layer 1"
     inkscape:groupmode="layer"
     id="layer1"
     transform="translate(0,-540.36219)">
    <ellipse
       style="opacity:1;fill:#eaff00;fill-opacity:0;fill-rule:evenodd;stroke-width:2;stroke-miterlimit:4;stroke-dasharray:none"
       id="path4138"
       cx="215.71428"
       cy="834.50507"
       rx="104.28571"
       ry="92.14286" />
    <circle
       style="opacity:1;fill:#fff48e;fill-opacity:0.8214286;fill-rule:evenodd;stroke:#000000;stroke-width:7.15100002;stroke-miterlimit:4;stroke-dasharray:none;stroke-opacity:1"
       id="path4144"
       cx="256"
       cy="796.36218"
       r="224.38353" />
    <g
       style="font-style:normal;font-weight:normal;font-size:376.61160278px;line-height:125%;font-family:sans-serif;letter-spacing:0px;word-spacing:0px;fill:#f87500;fill-opacity:1;stroke:none;stroke-width:1px;stroke-linecap:butt;stroke-linejoin:miter;stroke-opacity:1"
       id="text4151"
       transform="translate(-1.99999,-2.00002)">
      <path
         d="m 381.20789,669.54559 -11.58522,58.11 q -20.59595,-10.11409 -41.1919,-15.26307 -20.41205,-5.14899 -39.53686,-5.14899 -25.37715,0 -38.98519,6.98791 -13.42414,6.98791 -16.36642,21.6993 -2.20671,11.03355 4.7812,17.28589 6.98791,6.06845 27.58386,10.48186 l 28.87111,6.06845 q 43.95028,9.19462 59.39724,27.95164 15.63085,18.75703 8.82683,53.3288 -9.19462,45.42141 -40.64022,67.67239 -31.2617,22.06709 -86.61331,22.06709 -26.11272,0 -51.48987,-4.9651 -25.19325,-4.96509 -49.46705,-14.71139 l 11.95301,-59.76502 q 23.35433,13.97582 46.52477,21.14762 23.17044,6.98791 45.9731,6.98791 23.17044,0 36.96237,-7.72348 13.97582,-7.72348 16.7342,-22.06708 2.5745,-12.87247 -4.41341,-19.86038 -6.80402,-6.98791 -30.71003,-12.50468 l -26.29661,-6.06845 q -39.35297,-8.82684 -54.61604,-28.13554 -15.07918,-19.3087 -8.64294,-52.04154 8.27515,-41.008 39.16907,-63.07509 30.89392,-22.06708 80.54487,-22.06708 22.61876,0 45.7892,3.49395 23.35433,3.31006 47.44424,10.11408 z"
         style="font-style:italic;font-variant:normal;font-weight:bold;font-stretch:normal;font-family:sans-serif;-inkscape-font-specification:'sans-serif Bold Italic';fill:#f87500;fill-opacity:1"
         id="path4156"
         inkscape:connector-curvature="0" />
    </g>
  </g>
</svg>
